<?xml version="1.0" encoding="UTF-8"?>
<svg width="1285px" height="1285px" viewBox="0 0 1285 1285" version="1.1" xmlns="http://www.w3.org/2000/svg" xmlns:xlink="http://www.w3.org/1999/xlink">
    <title>Group</title>
    <defs>
        <path d="M642.5,0 C997.342952,0 1285,287.657048 1285,642.5 C1285,997.342952 997.342952,1285 642.5,1285 C287.657048,1285 0,997.342952 0,642.5 C0,287.657048 287.657048,0 642.5,0 Z M642.5,350.984574 C481.500476,350.984574 350.984574,481.500476 350.984574,642.5 C350.984574,803.499524 481.500476,934.015426 642.5,934.015426 C803.499524,934.015426 934.015426,803.499524 934.015426,642.5 C934.015426,481.500476 803.499524,350.984574 642.5,350.984574 Z" id="path-1"></path>
    </defs>
    <g id="Page-1" stroke="none" stroke-width="1" fill="none" fill-rule="evenodd">
        <g id="Dark-4" transform="translate(-597.000000, 467.000000)">
            <g id="Group" transform="translate(597.000000, -467.000000)">
                <mask id="mask-2" fill="white">
                    <use xlink:href="#path-1"></use>
                </mask>
                <g id="Combined-Shape"></g>
                <g mask="url(#mask-2)" id="Path-2" stroke="#2E3472">
                    <g transform="translate(695.015768, 589.117183) scale(-1, 1) rotate(45.000000) translate(-695.015768, -589.117183) translate(-237.984232, -139.882817)">
                        <path d="M0,0 C77.7374471,38.8687235 155.474894,58.3030853 233.212341,58.3030853 C349.818512,58.3030853 349.818512,0 466.424682,0 C583.030853,0 583.030853,58.3030853 699.637024,58.3030853 C816.243194,58.3030853 816.243194,0 932.849365,0 C1049.45554,0 1049.45554,58.3030853 1166.06171,58.3030853 C1282.66788,58.3030853 1282.66788,0 1399.27405,0 C1515.88022,0 1515.88022,58.3030853 1632.48639,58.3030853 C1710.22384,58.3030853 1787.96128,38.8687235 1865.69873,0"></path>
                        <path d="M0,58.3030853 C77.7374471,97.1718088 155.474894,116.606171 233.212341,116.606171 C349.818512,116.606171 349.818512,58.3030853 466.424682,58.3030853 C583.030853,58.3030853 583.030853,116.606171 699.637024,116.606171 C816.243194,116.606171 816.243194,58.3030853 932.849365,58.3030853 C1049.45554,58.3030853 1049.45554,116.606171 1166.06171,116.606171 C1282.66788,116.606171 1282.66788,58.3030853 1399.27405,58.3030853 C1515.88022,58.3030853 1515.88022,116.606171 1632.48639,116.606171 C1710.22384,116.606171 1787.96128,97.1718088 1865.69873,58.3030853"></path>
                        <path d="M0,233.212341 C77.7374471,272.081065 155.474894,291.515426 233.212341,291.515426 C349.818512,291.515426 349.818512,233.212341 466.424682,233.212341 C583.030853,233.212341 583.030853,291.515426 699.637024,291.515426 C816.243194,291.515426 816.243194,233.212341 932.849365,233.212341 C1049.45554,233.212341 1049.45554,291.515426 1166.06171,291.515426 C1282.66788,291.515426 1282.66788,233.212341 1399.27405,233.212341 C1515.88022,233.212341 1515.88022,291.515426 1632.48639,291.515426 C1710.22384,291.515426 1787.96128,272.081065 1865.69873,233.212341"></path>
                        <path d="M0,174.909256 C77.7374471,213.777979 155.474894,233.212341 233.212341,233.212341 C349.818512,233.212341 349.818512,174.909256 466.424682,174.909256 C583.030853,174.909256 583.030853,233.212341 699.637024,233.212341 C816.243194,233.212341 816.243194,174.909256 932.849365,174.909256 C1049.45554,174.909256 1049.45554,233.212341 1166.06171,233.212341 C1282.66788,233.212341 1282.66788,174.909256 1399.27405,174.909256 C1515.88022,174.909256 1515.88022,233.212341 1632.48639,233.212341 C1710.22384,233.212341 1787.96128,213.777979 1865.69873,174.909256"></path>
                        <path d="M0,116.606171 C77.7374471,155.474894 155.474894,174.909256 233.212341,174.909256 C349.818512,174.909256 349.818512,116.606171 466.424682,116.606171 C583.030853,116.606171 583.030853,174.909256 699.637024,174.909256 C816.243194,174.909256 816.243194,116.606171 932.849365,116.606171 C1049.45554,116.606171 1049.45554,174.909256 1166.06171,174.909256 C1282.66788,174.909256 1282.66788,116.606171 1399.27405,116.606171 C1515.88022,116.606171 1515.88022,174.909256 1632.48639,174.909256 C1710.22384,174.909256 1787.96128,155.474894 1865.69873,116.606171"></path>
                        <path d="M0,291.515426 C77.7374471,330.38415 155.474894,349.818512 233.212341,349.818512 C349.818512,349.818512 349.818512,291.515426 466.424682,291.515426 C583.030853,291.515426 583.030853,349.818512 699.637024,349.818512 C816.243194,349.818512 816.243194,291.515426 932.849365,291.515426 C1049.45554,291.515426 1049.45554,349.818512 1166.06171,349.818512 C1282.66788,349.818512 1282.66788,291.515426 1399.27405,291.515426 C1515.88022,291.515426 1515.88022,349.818512 1632.48639,349.818512 C1710.22384,349.818512 1787.96128,330.38415 1865.69873,291.515426"></path>
                        <path d="M0,349.818512 C77.7374471,388.687235 155.474894,408.121597 233.212341,408.121597 C349.818512,408.121597 349.818512,349.818512 466.424682,349.818512 C583.030853,349.818512 583.030853,408.121597 699.637024,408.121597 C816.243194,408.121597 816.243194,349.818512 932.849365,349.818512 C1049.45554,349.818512 1049.45554,408.121597 1166.06171,408.121597 C1282.66788,408.121597 1282.66788,349.818512 1399.27405,349.818512 C1515.88022,349.818512 1515.88022,408.121597 1632.48639,408.121597 C1710.22384,408.121597 1787.96128,388.687235 1865.69873,349.818512"></path>
                        <path d="M0,524.727768 C77.7374471,563.596491 155.474894,583.030853 233.212341,583.030853 C349.818512,583.030853 349.818512,524.727768 466.424682,524.727768 C583.030853,524.727768 583.030853,583.030853 699.637024,583.030853 C816.243194,583.030853 816.243194,524.727768 932.849365,524.727768 C1049.45554,524.727768 1049.45554,583.030853 1166.06171,583.030853 C1282.66788,583.030853 1282.66788,524.727768 1399.27405,524.727768 C1515.88022,524.727768 1515.88022,583.030853 1632.48639,583.030853 C1710.22384,583.030853 1787.96128,563.596491 1865.69873,524.727768"></path>
                        <path d="M0,466.424682 C77.7374471,505.293406 155.474894,524.727768 233.212341,524.727768 C349.818512,524.727768 349.818512,466.424682 466.424682,466.424682 C583.030853,466.424682 583.030853,524.727768 699.637024,524.727768 C816.243194,524.727768 816.243194,466.424682 932.849365,466.424682 C1049.45554,466.424682 1049.45554,524.727768 1166.06171,524.727768 C1282.66788,524.727768 1282.66788,466.424682 1399.27405,466.424682 C1515.88022,466.424682 1515.88022,524.727768 1632.48639,524.727768 C1710.22384,524.727768 1787.96128,505.293406 1865.69873,466.424682"></path>
                        <path d="M0,408.121597 C77.7374471,446.990321 155.474894,466.424682 233.212341,466.424682 C349.818512,466.424682 349.818512,408.121597 466.424682,408.121597 C583.030853,408.121597 583.030853,466.424682 699.637024,466.424682 C816.243194,466.424682 816.243194,408.121597 932.849365,408.121597 C1049.45554,408.121597 1049.45554,466.424682 1166.06171,466.424682 C1282.66788,466.424682 1282.66788,408.121597 1399.27405,408.121597 C1515.88022,408.121597 1515.88022,466.424682 1632.48639,466.424682 C1710.22384,466.424682 1787.96128,446.990321 1865.69873,408.121597"></path>
                        <path d="M0,583.030853 C77.7374471,621.899577 155.474894,641.333938 233.212341,641.333938 C349.818512,641.333938 349.818512,583.030853 466.424682,583.030853 C583.030853,583.030853 583.030853,641.333938 699.637024,641.333938 C816.243194,641.333938 816.243194,583.030853 932.849365,583.030853 C1049.45554,583.030853 1049.45554,641.333938 1166.06171,641.333938 C1282.66788,641.333938 1282.66788,583.030853 1399.27405,583.030853 C1515.88022,583.030853 1515.88022,641.333938 1632.48639,641.333938 C1710.22384,641.333938 1787.96128,621.899577 1865.69873,583.030853"></path>
                        <path d="M0,641.333938 C77.7374471,680.202662 155.474894,699.637024 233.212341,699.637024 C349.818512,699.637024 349.818512,641.333938 466.424682,641.333938 C583.030853,641.333938 583.030853,699.637024 699.637024,699.637024 C816.243194,699.637024 816.243194,641.333938 932.849365,641.333938 C1049.45554,641.333938 1049.45554,699.637024 1166.06171,699.637024 C1282.66788,699.637024 1282.66788,641.333938 1399.27405,641.333938 C1515.88022,641.333938 1515.88022,699.637024 1632.48639,699.637024 C1710.22384,699.637024 1787.96128,680.202662 1865.69873,641.333938"></path>
                        <path d="M0,816.243194 C77.7374471,855.111918 155.474894,874.546279 233.212341,874.546279 C349.818512,874.546279 349.818512,816.243194 466.424682,816.243194 C583.030853,816.243194 583.030853,874.546279 699.637024,874.546279 C816.243194,874.546279 816.243194,816.243194 932.849365,816.243194 C1049.45554,816.243194 1049.45554,874.546279 1166.06171,874.546279 C1282.66788,874.546279 1282.66788,816.243194 1399.27405,816.243194 C1515.88022,816.243194 1515.88022,874.546279 1632.48639,874.546279 C1710.22384,874.546279 1787.96128,855.111918 1865.69873,816.243194"></path>
                        <path d="M0,757.940109 C77.7374471,796.808832 155.474894,816.243194 233.212341,816.243194 C349.818512,816.243194 349.818512,757.940109 466.424682,757.940109 C583.030853,757.940109 583.030853,816.243194 699.637024,816.243194 C816.243194,816.243194 816.243194,757.940109 932.849365,757.940109 C1049.45554,757.940109 1049.45554,816.243194 1166.06171,816.243194 C1282.66788,816.243194 1282.66788,757.940109 1399.27405,757.940109 C1515.88022,757.940109 1515.88022,816.243194 1632.48639,816.243194 C1710.22384,816.243194 1787.96128,796.808832 1865.69873,757.940109"></path>
                        <path d="M0,699.637024 C77.7374471,738.505747 155.474894,757.940109 233.212341,757.940109 C349.818512,757.940109 349.818512,699.637024 466.424682,699.637024 C583.030853,699.637024 583.030853,757.940109 699.637024,757.940109 C816.243194,757.940109 816.243194,699.637024 932.849365,699.637024 C1049.45554,699.637024 1049.45554,757.940109 1166.06171,757.940109 C1282.66788,757.940109 1282.66788,699.637024 1399.27405,699.637024 C1515.88022,699.637024 1515.88022,757.940109 1632.48639,757.940109 C1710.22384,757.940109 1787.96128,738.505747 1865.69873,699.637024"></path>
                        <path d="M0,874.546279 C77.7374471,913.415003 155.474894,932.849365 233.212341,932.849365 C349.818512,932.849365 349.818512,874.546279 466.424682,874.546279 C583.030853,874.546279 583.030853,932.849365 699.637024,932.849365 C816.243194,932.849365 816.243194,874.546279 932.849365,874.546279 C1049.45554,874.546279 1049.45554,932.849365 1166.06171,932.849365 C1282.66788,932.849365 1282.66788,874.546279 1399.27405,874.546279 C1515.88022,874.546279 1515.88022,932.849365 1632.48639,932.849365 C1710.22384,932.849365 1787.96128,913.415003 1865.69873,874.546279"></path>
                        <path d="M0,932.849365 C77.7374471,971.718088 155.474894,991.15245 233.212341,991.15245 C349.818512,991.15245 349.818512,932.849365 466.424682,932.849365 C583.030853,932.849365 583.030853,991.15245 699.637024,991.15245 C816.243194,991.15245 816.243194,932.849365 932.849365,932.849365 C1049.45554,932.849365 1049.45554,991.15245 1166.06171,991.15245 C1282.66788,991.15245 1282.66788,932.849365 1399.27405,932.849365 C1515.88022,932.849365 1515.88022,991.15245 1632.48639,991.15245 C1710.22384,991.15245 1787.96128,971.718088 1865.69873,932.849365"></path>
                        <path d="M0,1107.75862 C77.7374471,1146.62734 155.474894,1166.06171 233.212341,1166.06171 C349.818512,1166.06171 349.818512,1107.75862 466.424682,1107.75862 C583.030853,1107.75862 583.030853,1166.06171 699.637024,1166.06171 C816.243194,1166.06171 816.243194,1107.75862 932.849365,1107.75862 C1049.45554,1107.75862 1049.45554,1166.06171 1166.06171,1166.06171 C1282.66788,1166.06171 1282.66788,1107.75862 1399.27405,1107.75862 C1515.88022,1107.75862 1515.88022,1166.06171 1632.48639,1166.06171 C1710.22384,1166.06171 1787.96128,1146.62734 1865.69873,1107.75862"></path>
                        <path d="M0,1049.45554 C77.7374471,1088.32426 155.474894,1107.75862 233.212341,1107.75862 C349.818512,1107.75862 349.818512,1049.45554 466.424682,1049.45554 C583.030853,1049.45554 583.030853,1107.75862 699.637024,1107.75862 C816.243194,1107.75862 816.243194,1049.45554 932.849365,1049.45554 C1049.45554,1049.45554 1049.45554,1107.75862 1166.06171,1107.75862 C1282.66788,1107.75862 1282.66788,1049.45554 1399.27405,1049.45554 C1515.88022,1049.45554 1515.88022,1107.75862 1632.48639,1107.75862 C1710.22384,1107.75862 1787.96128,1088.32426 1865.69873,1049.45554"></path>
                        <path d="M0,991.15245 C77.7374471,1030.02117 155.474894,1049.45554 233.212341,1049.45554 C349.818512,1049.45554 349.818512,991.15245 466.424682,991.15245 C583.030853,991.15245 583.030853,1049.45554 699.637024,1049.45554 C816.243194,1049.45554 816.243194,991.15245 932.849365,991.15245 C1049.45554,991.15245 1049.45554,1049.45554 1166.06171,1049.45554 C1282.66788,1049.45554 1282.66788,991.15245 1399.27405,991.15245 C1515.88022,991.15245 1515.88022,1049.45554 1632.48639,1049.45554 C1710.22384,1049.45554 1787.96128,1030.02117 1865.69873,991.15245"></path>
                        <path d="M0,1166.06171 C77.7374471,1204.93043 155.474894,1224.36479 233.212341,1224.36479 C349.818512,1224.36479 349.818512,1166.06171 466.424682,1166.06171 C583.030853,1166.06171 583.030853,1224.36479 699.637024,1224.36479 C816.243194,1224.36479 816.243194,1166.06171 932.849365,1166.06171 C1049.45554,1166.06171 1049.45554,1224.36479 1166.06171,1224.36479 C1282.66788,1224.36479 1282.66788,1166.06171 1399.27405,1166.06171 C1515.88022,1166.06171 1515.88022,1224.36479 1632.48639,1224.36479 C1710.22384,1224.36479 1787.96128,1204.93043 1865.69873,1166.06171"></path>
                        <path d="M0,1224.36479 C77.7374471,1263.23351 155.474894,1282.66788 233.212341,1282.66788 C349.818512,1282.66788 349.818512,1224.36479 466.424682,1224.36479 C583.030853,1224.36479 583.030853,1282.66788 699.637024,1282.66788 C816.243194,1282.66788 816.243194,1224.36479 932.849365,1224.36479 C1049.45554,1224.36479 1049.45554,1282.66788 1166.06171,1282.66788 C1282.66788,1282.66788 1282.66788,1224.36479 1399.27405,1224.36479 C1515.88022,1224.36479 1515.88022,1282.66788 1632.48639,1282.66788 C1710.22384,1282.66788 1787.96128,1263.23351 1865.69873,1224.36479"></path>
                        <path d="M0,1399.27405 C77.7374471,1438.14277 155.474894,1457.57713 233.212341,1457.57713 C349.818512,1457.57713 349.818512,1399.27405 466.424682,1399.27405 C583.030853,1399.27405 583.030853,1457.57713 699.637024,1457.57713 C816.243194,1457.57713 816.243194,1399.27405 932.849365,1399.27405 C1049.45554,1399.27405 1049.45554,1457.57713 1166.06171,1457.57713 C1282.66788,1457.57713 1282.66788,1399.27405 1399.27405,1399.27405 C1515.88022,1399.27405 1515.88022,1457.57713 1632.48639,1457.57713 C1710.22384,1457.57713 1787.96128,1438.14277 1865.69873,1399.27405"></path>
                        <path d="M0,1340.97096 C77.7374471,1379.83969 155.474894,1399.27405 233.212341,1399.27405 C349.818512,1399.27405 349.818512,1340.97096 466.424682,1340.97096 C583.030853,1340.97096 583.030853,1399.27405 699.637024,1399.27405 C816.243194,1399.27405 816.243194,1340.97096 932.849365,1340.97096 C1049.45554,1340.97096 1049.45554,1399.27405 1166.06171,1399.27405 C1282.66788,1399.27405 1282.66788,1340.97096 1399.27405,1340.97096 C1515.88022,1340.97096 1515.88022,1399.27405 1632.48639,1399.27405 C1710.22384,1399.27405 1787.96128,1379.83969 1865.69873,1340.97096"></path>
                        <path d="M0,1282.66788 C77.7374471,1321.5366 155.474894,1340.97096 233.212341,1340.97096 C349.818512,1340.97096 349.818512,1282.66788 466.424682,1282.66788 C583.030853,1282.66788 583.030853,1340.97096 699.637024,1340.97096 C816.243194,1340.97096 816.243194,1282.66788 932.849365,1282.66788 C1049.45554,1282.66788 1049.45554,1340.97096 1166.06171,1340.97096 C1282.66788,1340.97096 1282.66788,1282.66788 1399.27405,1282.66788 C1515.88022,1282.66788 1515.88022,1340.97096 1632.48639,1340.97096 C1710.22384,1340.97096 1787.96128,1321.5366 1865.69873,1282.66788"></path>
                    </g>
                </g>
            </g>
        </g>
    </g>
</svg>