<?xml version="1.0" encoding="UTF-8"?>
<svg width="58px" height="64px" viewBox="0 0 58 64" version="1.1" xmlns="http://www.w3.org/2000/svg" xmlns:xlink="http://www.w3.org/1999/xlink">
    <title>Logo</title>
    <g id="Page-1" stroke="none" stroke-width="1" fill="none" fill-rule="evenodd">
        <g id="Light" transform="translate(-30.000000, -27.000000)">
            <g id="Group">
                <g id="Logo" transform="translate(59.000000, 59.000000) scale(1, -1) translate(-59.000000, -59.000000) translate(30.000000, 27.000000)">
                    <g id="Group-2" transform="translate(17.400000, 17.400000)">
                        <path d="M11.6,-7.10542736e-15 L14.5,-7.10542736e-15 C19.3048773,-7.10542736e-15 23.2,3.89512268 23.2,8.7 C23.2,13.5048773 19.3048773,17.4 14.5,17.4 L3.64153152e-13,17.4 L3.64153152e-13,11.6 L14.5,11.6 C16.1016258,11.6 17.4,10.3016258 17.4,8.7 C17.4,7.11439048 16.1274634,5.82599781 14.5479568,5.80038852 L14.5,5.8 L11.6,5.8 L11.6,-7.10542736e-15 Z" id="Path" fill="#6571FA"></path>
                        <path d="M3.64153152e-13,11.6 L14.5,11.6 C19.3048773,11.6 23.2,15.4951227 23.2,20.3 C23.2,25.1048773 19.3048773,29 14.5,29 L3.64153152e-13,29 L3.64153152e-13,23.2 L14.5,23.2 C16.1016258,23.2 17.4,21.9016258 17.4,20.3 C17.4,18.6983742 16.1016258,17.4 14.5,17.4 L14.5,17.4 L3.64153152e-13,17.4 L3.64153152e-13,11.6 Z" id="Combined-Shape" fill="#6571FA"></path>
                        <rect id="Rectangle" fill="#FDBB69" x="-3.64153152e-13" y="-8.8817842e-15" width="5.8" height="5.8"></rect>
                    </g>
                </g>
            </g>
        </g>
    </g>
</svg>